<svg xmlns="http://www.w3.org/2000/svg" xmlns:xlink="http://www.w3.org/1999/xlink" width="500" zoomAndPan="magnify" viewBox="0 0 375 374.999991" height="500" preserveAspectRatio="xMidYMid meet" version="1.0"><defs><clipPath id="801a9064ac"><path d="M 171.035156 172.539062 L 204.035156 172.539062 L 204.035156 202.539062 L 171.035156 202.539062 Z M 171.035156 172.539062 " clip-rule="nonzero"/></clipPath><clipPath id="2c450feb84"><path d="M 186 199 L 190 199 L 190 202.539062 L 186 202.539062 Z M 186 199 " clip-rule="nonzero"/></clipPath><clipPath id="31eab2c9d5"><path d="M 171.035156 172.539062 L 178 172.539062 L 178 188 L 171.035156 188 Z M 171.035156 172.539062 " clip-rule="nonzero"/></clipPath><clipPath id="c9bdab8e0b"><path d="M 198 172.539062 L 204.035156 172.539062 L 204.035156 188 L 198 188 Z M 198 172.539062 " clip-rule="nonzero"/></clipPath></defs><g clip-path="url(#801a9064ac)"><path fill="#9832dd" d="M 186.035156 184.539062 L 183.039062 184.539062 L 183.039062 181.539062 L 180.039062 181.539062 L 180.039062 178.539062 L 177.039062 178.539062 L 177.039062 175.539062 L 174.042969 175.539062 L 174.042969 172.539062 L 171.042969 172.539062 L 171.042969 187.539062 L 174.042969 187.539062 L 174.042969 190.539062 L 177.039062 190.539062 L 177.039062 193.539062 L 180.039062 193.539062 L 180.039062 196.539062 L 183.039062 196.539062 L 183.039062 199.539062 L 186.035156 199.539062 L 186.035156 202.539062 L 189.035156 202.539062 L 189.035156 199.539062 L 192.03125 199.539062 L 192.03125 196.539062 L 195.03125 196.539062 L 195.03125 193.539062 L 198.027344 193.539062 L 198.027344 190.539062 L 201.027344 190.539062 L 201.027344 187.539062 L 204.023438 187.539062 L 204.023438 172.539062 L 201.027344 172.539062 L 201.027344 175.539062 L 198.027344 175.539062 L 198.027344 178.539062 L 195.03125 178.539062 L 195.03125 181.539062 L 192.03125 181.539062 L 192.03125 184.539062 L 189.035156 184.539062 L 189.035156 187.539062 L 186.035156 187.539062 Z M 186.035156 184.539062 " fill-opacity="1" fill-rule="nonzero"/></g><path fill="#711cad" d="M 186.035156 196.539062 L 189.035156 196.539062 L 189.035156 199.539062 L 186.035156 199.539062 Z M 186.035156 196.539062 " fill-opacity="1" fill-rule="nonzero"/><path fill="#711cad" d="M 189.035156 193.539062 L 192.03125 193.539062 L 192.03125 196.539062 L 189.035156 196.539062 Z M 189.035156 193.539062 " fill-opacity="1" fill-rule="nonzero"/><path fill="#fff4eb" d="M 174.042969 178.539062 L 177.039062 178.539062 L 177.039062 181.539062 L 174.042969 181.539062 Z M 174.042969 178.539062 " fill-opacity="1" fill-rule="nonzero"/><g clip-path="url(#2c450feb84)"><path fill="#0e0c3e" d="M 186.035156 199.539062 L 189.035156 199.539062 L 189.035156 202.539062 L 186.035156 202.539062 Z M 186.035156 199.539062 " fill-opacity="1" fill-rule="nonzero"/></g><path fill="#0e0c3e" d="M 189.035156 196.539062 L 192.03125 196.539062 L 192.03125 199.539062 L 189.035156 199.539062 Z M 189.035156 196.539062 " fill-opacity="1" fill-rule="nonzero"/><path fill="#0e0c3e" d="M 183.039062 196.539062 L 186.035156 196.539062 L 186.035156 199.539062 L 183.039062 199.539062 Z M 183.039062 196.539062 " fill-opacity="1" fill-rule="nonzero"/><path fill="#0e0c3e" d="M 192.03125 193.539062 L 195.03125 193.539062 L 195.03125 196.539062 L 192.03125 196.539062 Z M 192.03125 193.539062 " fill-opacity="1" fill-rule="nonzero"/><path fill="#0e0c3e" d="M 180.039062 193.539062 L 183.039062 193.539062 L 183.039062 196.539062 L 180.039062 196.539062 Z M 180.039062 193.539062 " fill-opacity="1" fill-rule="nonzero"/><path fill="#0e0c3e" d="M 195.03125 190.539062 L 198.027344 190.539062 L 198.027344 193.539062 L 195.03125 193.539062 Z M 195.03125 190.539062 " fill-opacity="1" fill-rule="nonzero"/><path fill="#0e0c3e" d="M 177.039062 190.539062 L 180.039062 190.539062 L 180.039062 193.539062 L 177.039062 193.539062 Z M 177.039062 190.539062 " fill-opacity="1" fill-rule="nonzero"/><path fill="#0e0c3e" d="M 198.027344 187.539062 L 201.027344 187.539062 L 201.027344 190.539062 L 198.027344 190.539062 Z M 198.027344 187.539062 " fill-opacity="1" fill-rule="nonzero"/><path fill="#0e0c3e" d="M 186.035156 187.539062 L 189.035156 187.539062 L 189.035156 190.539062 L 186.035156 190.539062 Z M 186.035156 187.539062 " fill-opacity="1" fill-rule="nonzero"/><path fill="#0e0c3e" d="M 174.042969 187.539062 L 177.039062 187.539062 L 177.039062 190.539062 L 174.042969 190.539062 Z M 174.042969 187.539062 " fill-opacity="1" fill-rule="nonzero"/><path fill="#0e0c3e" d="M 189.035156 184.539062 L 192.03125 184.539062 L 192.03125 187.539062 L 189.035156 187.539062 Z M 189.035156 184.539062 " fill-opacity="1" fill-rule="nonzero"/><path fill="#0e0c3e" d="M 183.039062 184.539062 L 186.035156 184.539062 L 186.035156 187.539062 L 183.039062 187.539062 Z M 183.039062 184.539062 " fill-opacity="1" fill-rule="nonzero"/><path fill="#0e0c3e" d="M 192.03125 181.539062 L 195.03125 181.539062 L 195.03125 184.539062 L 192.03125 184.539062 Z M 192.03125 181.539062 " fill-opacity="1" fill-rule="nonzero"/><path fill="#0e0c3e" d="M 180.039062 181.539062 L 183.039062 181.539062 L 183.039062 184.539062 L 180.039062 184.539062 Z M 180.039062 181.539062 " fill-opacity="1" fill-rule="nonzero"/><g clip-path="url(#31eab2c9d5)"><path fill="#0e0c3e" d="M 174.042969 181.539062 L 174.042969 178.539062 L 177.039062 178.539062 L 177.039062 175.539062 L 174.042969 175.539062 L 174.042969 172.539062 L 171.042969 172.539062 L 171.042969 187.539062 L 174.042969 187.539062 Z M 174.042969 181.539062 " fill-opacity="1" fill-rule="nonzero"/></g><path fill="#0e0c3e" d="M 195.03125 178.539062 L 198.027344 178.539062 L 198.027344 181.539062 L 195.03125 181.539062 Z M 195.03125 178.539062 " fill-opacity="1" fill-rule="nonzero"/><path fill="#0e0c3e" d="M 177.039062 178.539062 L 180.039062 178.539062 L 180.039062 181.539062 L 177.039062 181.539062 Z M 177.039062 178.539062 " fill-opacity="1" fill-rule="nonzero"/><g clip-path="url(#c9bdab8e0b)"><path fill="#0e0c3e" d="M 201.027344 172.539062 L 201.027344 175.539062 L 198.027344 175.539062 L 198.027344 178.539062 L 201.027344 178.539062 L 201.027344 187.539062 L 204.023438 187.539062 L 204.023438 172.539062 Z M 201.027344 172.539062 " fill-opacity="1" fill-rule="nonzero"/></g></svg>