<svg xmlns="http://www.w3.org/2000/svg" xmlns:xlink="http://www.w3.org/1999/xlink" width="500" zoomAndPan="magnify" viewBox="0 0 375 374.999991" height="500" preserveAspectRatio="xMidYMid meet" version="1.0"><defs><clipPath id="8538c6ac20"><rect x="0" width="331" y="0" height="331"/></clipPath></defs><g transform="matrix(1, 0, 0, 1, 22, 22)"><g clip-path="url(#8538c6ac20)"><path fill="#000000" d="M 165.5 10.382812 C 172.277344 10.382812 179.027344 10.828125 185.746094 11.710938 C 192.464844 12.597656 199.101562 13.914062 205.648438 15.667969 C 212.195312 17.425781 218.597656 19.597656 224.859375 22.191406 C 231.121094 24.785156 237.1875 27.777344 243.058594 31.164062 L 165.5 165.5 Z M 165.5 10.382812 " fill-opacity="1" fill-rule="nonzero"/><path fill="#000000" d="M 243.058594 31.164062 C 248.929688 34.554688 254.550781 38.3125 259.929688 42.4375 C 265.304688 46.5625 270.390625 51.023438 275.183594 55.816406 C 279.976562 60.609375 284.4375 65.695312 288.5625 71.070312 C 292.6875 76.449219 296.445312 82.070312 299.835938 87.941406 L 165.5 165.5 Z M 243.058594 31.164062 " fill-opacity="1" fill-rule="nonzero"/><path fill="#000000" d="M 299.835938 87.941406 C 303.222656 93.8125 306.214844 99.878906 308.808594 106.140625 C 311.402344 112.402344 313.574219 118.804688 315.332031 125.351562 C 317.085938 131.898438 318.402344 138.535156 319.289062 145.253906 C 320.171875 151.972656 320.617188 158.722656 320.617188 165.5 L 165.5 165.5 Z M 299.835938 87.941406 " fill-opacity="1" fill-rule="nonzero"/><path fill="#000000" d="M 320.617188 165.5 C 320.617188 172.277344 320.171875 179.027344 319.289062 185.746094 C 318.402344 192.464844 317.085938 199.101562 315.332031 205.648438 C 313.574219 212.195312 311.402344 218.597656 308.808594 224.859375 C 306.214844 231.121094 303.222656 237.1875 299.835938 243.058594 L 165.5 165.5 Z M 320.617188 165.5 " fill-opacity="1" fill-rule="nonzero"/><path fill="#000000" d="M 299.835938 243.058594 C 296.445312 248.929688 292.6875 254.550781 288.5625 259.929688 C 284.4375 265.304688 279.976562 270.390625 275.183594 275.183594 C 270.390625 279.976562 265.304688 284.4375 259.929688 288.5625 C 254.550781 292.6875 248.929688 296.445312 243.058594 299.835938 L 165.5 165.5 Z M 299.835938 243.058594 " fill-opacity="1" fill-rule="nonzero"/><path fill="#000000" d="M 243.058594 299.835938 C 237.1875 303.222656 231.121094 306.214844 224.859375 308.808594 C 218.597656 311.402344 212.195312 313.574219 205.648438 315.332031 C 199.101562 317.085938 192.464844 318.402344 185.746094 319.289062 C 179.027344 320.171875 172.277344 320.617188 165.5 320.617188 L 165.5 165.5 Z M 243.058594 299.835938 " fill-opacity="1" fill-rule="nonzero"/><path fill="#000000" d="M 165.5 320.617188 C 158.722656 320.617188 151.972656 320.171875 145.253906 319.289062 C 138.535156 318.402344 131.898438 317.085938 125.351562 315.332031 C 118.804688 313.574219 112.402344 311.402344 106.140625 308.808594 C 99.878906 306.214844 93.8125 303.222656 87.941406 299.835938 L 165.5 165.5 Z M 165.5 320.617188 " fill-opacity="1" fill-rule="nonzero"/><path fill="#000000" d="M 87.941406 299.835938 C 82.070312 296.445312 76.449219 292.6875 71.070312 288.5625 C 65.695312 284.4375 60.609375 279.976562 55.816406 275.183594 C 51.023438 270.390625 46.5625 265.304688 42.4375 259.929688 C 38.3125 254.550781 34.554688 248.929688 31.164062 243.058594 L 165.5 165.5 Z M 87.941406 299.835938 " fill-opacity="1" fill-rule="nonzero"/><path fill="#000000" d="M 31.164062 243.058594 C 27.777344 237.1875 24.785156 231.121094 22.191406 224.859375 C 19.597656 218.597656 17.425781 212.195312 15.667969 205.648438 C 13.914062 199.101562 12.597656 192.464844 11.710938 185.746094 C 10.828125 179.027344 10.382812 172.277344 10.382812 165.5 L 165.5 165.5 Z M 31.164062 243.058594 " fill-opacity="1" fill-rule="nonzero"/><path fill="#000000" d="M 10.382812 165.5 C 10.382812 158.722656 10.828125 151.972656 11.710938 145.253906 C 12.597656 138.535156 13.914062 131.898438 15.667969 125.351562 C 17.425781 118.804688 19.597656 112.402344 22.191406 106.140625 C 24.785156 99.878906 27.777344 93.8125 31.164062 87.941406 L 165.5 165.5 Z M 10.382812 165.5 " fill-opacity="1" fill-rule="nonzero"/><path fill="#000000" d="M 31.164062 87.941406 C 34.554688 82.070312 38.3125 76.449219 42.4375 71.070312 C 46.5625 65.695312 51.023438 60.609375 55.816406 55.816406 C 60.609375 51.023438 65.695312 46.5625 71.070312 42.4375 C 76.449219 38.3125 82.070312 34.554688 87.941406 31.164062 L 165.5 165.5 Z M 31.164062 87.941406 " fill-opacity="1" fill-rule="nonzero"/><path fill="#000000" d="M 87.941406 31.164062 C 93.8125 27.777344 99.875 24.785156 106.136719 22.191406 C 112.398438 19.601562 118.800781 17.425781 125.34375 15.671875 C 131.890625 13.917969 138.523438 12.597656 145.242188 11.710938 C 151.960938 10.828125 158.707031 10.386719 165.484375 10.382812 L 165.5 165.5 Z M 87.941406 31.164062 " fill-opacity="1" fill-rule="nonzero"/></g></g></svg>